# xmcd
#
# Track frame offsets:
#	150
#	18420
#	38865
#	53942
#	72496
#	95235
#	110652
#	129277
#	144283
#	161236
#	177829
#	190026
#	206523
#	222475
#	234342
#	250275
#	269646
#	290604
#	310665
#	327875
#
# Disc length: 4688 seconds
#
# Revision: 0
# Processed by: cddbd v1.5.1PL0 Copyright (c) Steve Scherf et al.
# Submitted via: dBpowerAMP V4.0
#
DISCID=33124e14
DTITLE=Camilo Sesto - Solo un Hombre
DYEAR=1900
DGENRE=Ballad
TTITLE0=Mola Mazo
TTITLE1=Mientras me sigas necesitando
TTITLE2=Mendigo de amor
TTITLE3=Alguién
TTITLE4=Puente sobre aguas turbulentas
TTITLE5=Volver, Volver
TTITLE6=Agua Pasada
TTITLE7=Hablemos de algo
TTITLE8=Adios
TTITLE9=Amor no me ignores
TTITLE10=Buenas noches
TTITLE11=No cierres tus ojos
TTITLE12=Piel de angel
TTITLE13=Qué será de ti
TTITLE14=Tarde o temprano
TTITLE15=Memorias
TTITLE16=No sabes cuanto te quiero
TTITLE17=Nuestra Cama
TTITLE18=Que dificil es ser feliz
TTITLE19=Si se calla el cantor
EXTD=
EXTT0=
EXTT1=
EXTT2=
EXTT3=
EXTT4=
EXTT5=
EXTT6=
EXTT7=
EXTT8=
EXTT9=
EXTT10=
EXTT11=
EXTT12=
EXTT13=
EXTT14=
EXTT15=
EXTT16=
EXTT17=
EXTT18=
EXTT19=
PLAYORDER=
